<svg xmlns="http://www.w3.org/2000/svg" width="14.031" height="46.03" viewBox="0 0 14.031 46.03">
  <defs>
    <style>
      .cls-1 {
        fill: #ec644b;
        fill-rule: evenodd;
      }
    </style>
  </defs>
  <path id="Rounded_Rectangle_2_copy_7" data-name="Rounded Rectangle 2 copy 7" class="cls-1" d="M861.806,4220.33l-12.787-21.7a0.437,0.437,0,0,0-.825,0,1.518,1.518,0,0,0,0,1.4l12.787,21.7a0.437,0.437,0,0,0,.825,0A1.518,1.518,0,0,0,861.806,4220.33Zm0.036-42.64-12.837,21.79a0.44,0.44,0,0,1-.829,0,1.518,1.518,0,0,1,0-1.4l12.837-21.8a0.44,0.44,0,0,1,.829,0A1.539,1.539,0,0,1,861.842,4177.69Z" transform="translate(-848 -4176)"/>
</svg>
